# xmcd
#
# Track frame offsets:
#	150
#	47143
#	63586
#	80949
#	99050
#	123793
#	142008
#	162995
#	187681
#	214774
#	273397
#
# Disc length: 4082 seconds
# Revision: 0
# Processed by: cddbd v1.5.2PL0 Copyright (c) Steve Scherf et al.
# Submitted via: dBpowerAMP V12.0
#
DISCID=980ff00b
DTITLE=Baum - Live at Dhanyabaad 2011
DYEAR=2011
DGENRE=Singer/Songwriter
TTITLE0=I like it
TTITLE1=Damn
TTITLE2=We should be dancing (feat. Patrick Bishop)
TTITLE3=She smiles (feat. Darwin)
TTITLE4=Mrs Adams (feat. Kaspar Rast)
TTITLE5=Girl
TTITLE6=Hope that we once had (feat. James Gruntz)
TTITLE7=Couldn't hurt you more (feat. Lea Lu)
TTITLE8=One day you will return
TTITLE9=Bloody goodbye (feat. Eliana Burki)
TTITLE10=Center of town
EXTD=
EXTT0=
EXTT1=
EXTT2=
EXTT3=
EXTT4=
EXTT5=
EXTT6=
EXTT7=
EXTT8=
EXTT9=
EXTT10=
PLAYORDER=
